<mxfile host="app.diagrams.net" agent="Mozilla/5.0 (Macintosh; Intel Mac OS X 10_15_7) AppleWebKit/605.1.15 (KHTML, like Gecko) Version/17.5 Safari/605.1.15" version="26.0.12">
  <diagram name="Page-1" id="ELZsTl-ExnuNxCwSCHn5">
    <mxGraphModel dx="954" dy="647" grid="1" gridSize="10" guides="1" tooltips="1" connect="1" arrows="1" fold="1" page="1" pageScale="1" pageWidth="827" pageHeight="1169" math="0" shadow="0">
      <root>
        <mxCell id="0" />
        <mxCell id="1" parent="0" />
        <mxCell id="FidfcfIh9Q0ooM0dL6Si-22" value="ditch for water" style="rhombus;whiteSpace=wrap;html=1;fillColor=light-dark(#00c7fc, #ededed);" vertex="1" parent="1">
          <mxGeometry x="205.5" y="360" width="40" height="120" as="geometry" />
        </mxCell>
        <mxCell id="hqDBQVvUN8pm33PHdfQ5-1" value="" style="rounded=0;whiteSpace=wrap;html=1;fillColor=none;strokeWidth=2;" parent="1" vertex="1">
          <mxGeometry x="30" y="39" width="820" height="250" as="geometry" />
        </mxCell>
        <mxCell id="hqDBQVvUN8pm33PHdfQ5-4" value="" style="endArrow=none;html=1;rounded=0;entryX=1;entryY=1;entryDx=0;entryDy=0;strokeWidth=2;" parent="1" target="hqDBQVvUN8pm33PHdfQ5-1" edge="1">
          <mxGeometry width="50" height="50" relative="1" as="geometry">
            <mxPoint x="850" y="480" as="sourcePoint" />
            <mxPoint x="450" y="290" as="targetPoint" />
          </mxGeometry>
        </mxCell>
        <mxCell id="hqDBQVvUN8pm33PHdfQ5-5" value="" style="endArrow=none;html=1;rounded=0;strokeWidth=2;" parent="1" edge="1">
          <mxGeometry width="50" height="50" relative="1" as="geometry">
            <mxPoint x="850" y="480" as="sourcePoint" />
            <mxPoint x="30" y="480" as="targetPoint" />
            <Array as="points" />
          </mxGeometry>
        </mxCell>
        <mxCell id="hqDBQVvUN8pm33PHdfQ5-6" value="" style="endArrow=none;html=1;rounded=0;entryX=0;entryY=1;entryDx=0;entryDy=0;strokeWidth=2;exitX=0;exitY=0;exitDx=0;exitDy=0;" parent="1" source="hqDBQVvUN8pm33PHdfQ5-49" edge="1">
          <mxGeometry width="50" height="50" relative="1" as="geometry">
            <mxPoint x="30" y="460" as="sourcePoint" />
            <mxPoint x="30.000000000000114" y="289" as="targetPoint" />
          </mxGeometry>
        </mxCell>
        <mxCell id="hqDBQVvUN8pm33PHdfQ5-9" value="" style="endArrow=none;dashed=1;html=1;rounded=0;entryX=0.133;entryY=0.004;entryDx=0;entryDy=0;entryPerimeter=0;exitX=0.135;exitY=0.996;exitDx=0;exitDy=0;exitPerimeter=0;strokeWidth=2;" parent="1" edge="1">
          <mxGeometry width="50" height="50" relative="1" as="geometry">
            <mxPoint x="135.70000000000005" y="288" as="sourcePoint" />
            <mxPoint x="134.05999999999995" y="40" as="targetPoint" />
          </mxGeometry>
        </mxCell>
        <mxCell id="hqDBQVvUN8pm33PHdfQ5-18" value="" style="endArrow=none;dashed=1;html=1;rounded=0;entryX=0.133;entryY=0.004;entryDx=0;entryDy=0;entryPerimeter=0;exitX=0.135;exitY=0.996;exitDx=0;exitDy=0;exitPerimeter=0;strokeWidth=2;" parent="1" edge="1">
          <mxGeometry width="50" height="50" relative="1" as="geometry">
            <mxPoint x="443" y="288" as="sourcePoint" />
            <mxPoint x="441" y="40" as="targetPoint" />
          </mxGeometry>
        </mxCell>
        <mxCell id="hqDBQVvUN8pm33PHdfQ5-19" value="" style="endArrow=none;dashed=1;html=1;rounded=0;entryX=0.133;entryY=0.004;entryDx=0;entryDy=0;entryPerimeter=0;exitX=0.135;exitY=0.996;exitDx=0;exitDy=0;exitPerimeter=0;strokeWidth=2;" parent="1" edge="1">
          <mxGeometry width="50" height="50" relative="1" as="geometry">
            <mxPoint x="332" y="289" as="sourcePoint" />
            <mxPoint x="330" y="41" as="targetPoint" />
            <Array as="points">
              <mxPoint x="332" y="160" />
            </Array>
          </mxGeometry>
        </mxCell>
        <mxCell id="hqDBQVvUN8pm33PHdfQ5-20" value="" style="endArrow=none;dashed=1;html=1;rounded=0;entryX=0.133;entryY=0.004;entryDx=0;entryDy=0;entryPerimeter=0;exitX=0.135;exitY=0.996;exitDx=0;exitDy=0;exitPerimeter=0;strokeWidth=2;" parent="1" edge="1">
          <mxGeometry width="50" height="50" relative="1" as="geometry">
            <mxPoint x="235" y="289" as="sourcePoint" />
            <mxPoint x="233" y="41" as="targetPoint" />
          </mxGeometry>
        </mxCell>
        <mxCell id="hqDBQVvUN8pm33PHdfQ5-22" value="" style="endArrow=none;dashed=1;html=1;rounded=0;entryX=0.133;entryY=0.004;entryDx=0;entryDy=0;entryPerimeter=0;exitX=0.135;exitY=0.996;exitDx=0;exitDy=0;exitPerimeter=0;strokeWidth=2;" parent="1" edge="1">
          <mxGeometry width="50" height="50" relative="1" as="geometry">
            <mxPoint x="739" y="287" as="sourcePoint" />
            <mxPoint x="737" y="39" as="targetPoint" />
          </mxGeometry>
        </mxCell>
        <mxCell id="hqDBQVvUN8pm33PHdfQ5-23" value="" style="endArrow=none;dashed=1;html=1;rounded=0;entryX=0.133;entryY=0.004;entryDx=0;entryDy=0;entryPerimeter=0;exitX=0.135;exitY=0.996;exitDx=0;exitDy=0;exitPerimeter=0;strokeWidth=2;" parent="1" edge="1">
          <mxGeometry width="50" height="50" relative="1" as="geometry">
            <mxPoint x="647" y="287" as="sourcePoint" />
            <mxPoint x="645" y="39" as="targetPoint" />
          </mxGeometry>
        </mxCell>
        <mxCell id="hqDBQVvUN8pm33PHdfQ5-24" value="" style="endArrow=none;dashed=1;html=1;rounded=0;entryX=0.133;entryY=0.004;entryDx=0;entryDy=0;entryPerimeter=0;exitX=0.135;exitY=0.996;exitDx=0;exitDy=0;exitPerimeter=0;strokeWidth=2;" parent="1" edge="1">
          <mxGeometry width="50" height="50" relative="1" as="geometry">
            <mxPoint x="554" y="290" as="sourcePoint" />
            <mxPoint x="552" y="42" as="targetPoint" />
          </mxGeometry>
        </mxCell>
        <mxCell id="hqDBQVvUN8pm33PHdfQ5-26" value="" style="shape=link;html=1;rounded=0;entryX=1.005;entryY=0.56;entryDx=0;entryDy=0;entryPerimeter=0;strokeWidth=3;strokeColor=light-dark(#3333FF,#FFFFFF);" parent="1" edge="1">
          <mxGeometry width="100" relative="1" as="geometry">
            <mxPoint x="27" y="171" as="sourcePoint" />
            <mxPoint x="851.0999999999999" y="170" as="targetPoint" />
          </mxGeometry>
        </mxCell>
        <mxCell id="hqDBQVvUN8pm33PHdfQ5-47" value="" style="shape=link;html=1;rounded=0;strokeWidth=3;strokeColor=light-dark(#3333FF,#FFFFFF);" parent="1" edge="1">
          <mxGeometry width="100" relative="1" as="geometry">
            <mxPoint x="31" y="297" as="sourcePoint" />
            <mxPoint x="850" y="298" as="targetPoint" />
          </mxGeometry>
        </mxCell>
        <mxCell id="hqDBQVvUN8pm33PHdfQ5-49" value="Fodder&amp;nbsp;&lt;div&gt;Make boundary wire Boundary&amp;nbsp;&lt;/div&gt;&lt;div&gt;&lt;br&gt;&lt;/div&gt;" style="rounded=0;whiteSpace=wrap;html=1;fillColor=light-dark(#80FF00,var(--ge-dark-color, #121212));strokeWidth=3;" parent="1" vertex="1">
          <mxGeometry x="30" y="480" width="820" height="180" as="geometry" />
        </mxCell>
        <mxCell id="hqDBQVvUN8pm33PHdfQ5-59" value="" style="endArrow=none;dashed=1;html=1;rounded=0;exitX=0.135;exitY=0.996;exitDx=0;exitDy=0;exitPerimeter=0;strokeWidth=2;" parent="1" edge="1">
          <mxGeometry width="50" height="50" relative="1" as="geometry">
            <mxPoint x="452" y="474" as="sourcePoint" />
            <mxPoint x="452" y="292" as="targetPoint" />
          </mxGeometry>
        </mxCell>
        <mxCell id="hqDBQVvUN8pm33PHdfQ5-61" value="" style="endArrow=none;dashed=1;html=1;rounded=0;exitX=0.135;exitY=0.996;exitDx=0;exitDy=0;exitPerimeter=0;strokeWidth=2;" parent="1" edge="1">
          <mxGeometry width="50" height="50" relative="1" as="geometry">
            <mxPoint x="751" y="474" as="sourcePoint" />
            <mxPoint x="751" y="292" as="targetPoint" />
          </mxGeometry>
        </mxCell>
        <mxCell id="hqDBQVvUN8pm33PHdfQ5-63" value="" style="shape=link;html=1;rounded=0;entryX=1.005;entryY=0.56;entryDx=0;entryDy=0;entryPerimeter=0;strokeWidth=8;strokeColor=#36393d;fillColor=#ffff88;" parent="1" edge="1">
          <mxGeometry width="100" relative="1" as="geometry">
            <mxPoint x="26" y="667" as="sourcePoint" />
            <mxPoint x="850.0999999999999" y="666" as="targetPoint" />
          </mxGeometry>
        </mxCell>
        <mxCell id="hqDBQVvUN8pm33PHdfQ5-64" value="" style="shape=link;html=1;rounded=0;entryX=0.009;entryY=0.012;entryDx=0;entryDy=0;entryPerimeter=0;strokeWidth=7;strokeColor=#36393d;fillColor=#ffff88;" parent="1" edge="1">
          <mxGeometry width="100" relative="1" as="geometry">
            <mxPoint x="19" y="750" as="sourcePoint" />
            <mxPoint x="19.379999999999995" y="38" as="targetPoint" />
          </mxGeometry>
        </mxCell>
        <mxCell id="FidfcfIh9Q0ooM0dL6Si-3" value="" style="endArrow=none;html=1;rounded=1;entryX=0.999;entryY=0.94;entryDx=0;entryDy=0;entryPerimeter=0;curved=0;fillColor=#f8cecc;strokeColor=light-dark(#B3B3B3,#D7817E);strokeWidth=18;" edge="1" parent="1">
          <mxGeometry width="50" height="50" relative="1" as="geometry">
            <mxPoint x="32" y="284" as="sourcePoint" />
            <mxPoint x="849.1799999999998" y="284" as="targetPoint" />
            <Array as="points">
              <mxPoint x="82" y="284" />
            </Array>
          </mxGeometry>
        </mxCell>
        <mxCell id="FidfcfIh9Q0ooM0dL6Si-26" value="Path to all sheds&amp;nbsp;" style="edgeLabel;html=1;align=center;verticalAlign=middle;resizable=0;points=[];" vertex="1" connectable="0" parent="FidfcfIh9Q0ooM0dL6Si-3">
          <mxGeometry x="0.1283" y="1" relative="1" as="geometry">
            <mxPoint as="offset" />
          </mxGeometry>
        </mxCell>
        <mxCell id="FidfcfIh9Q0ooM0dL6Si-5" value="Keeper" style="shape=umlActor;verticalLabelPosition=bottom;verticalAlign=top;html=1;outlineConnect=0;" vertex="1" parent="1">
          <mxGeometry x="102" y="422" width="27" height="29" as="geometry" />
        </mxCell>
        <mxCell id="hqDBQVvUN8pm33PHdfQ5-46" value="&lt;div&gt;14&lt;/div&gt;Feed making Area&lt;div&gt;+&lt;/div&gt;&lt;div&gt;1st floor Office&amp;nbsp;&lt;/div&gt;&lt;div&gt;+&lt;/div&gt;&lt;div&gt;Kitchen and toilet&lt;/div&gt;&lt;div&gt;+&lt;/div&gt;&lt;div&gt;Medcine Room&lt;/div&gt;" style="shape=or;whiteSpace=wrap;html=1;fillColor=light-dark(#FFB570,var(--ge-dark-color, #121212));" parent="1" vertex="1">
          <mxGeometry x="243" y="301" width="112" height="177" as="geometry" />
        </mxCell>
        <mxCell id="FidfcfIh9Q0ooM0dL6Si-8" value="" style="endArrow=none;dashed=1;html=1;rounded=0;exitX=0.135;exitY=0.996;exitDx=0;exitDy=0;exitPerimeter=0;strokeWidth=2;" edge="1" parent="1">
          <mxGeometry width="50" height="50" relative="1" as="geometry">
            <mxPoint x="350" y="479" as="sourcePoint" />
            <mxPoint x="350" y="300" as="targetPoint" />
            <Array as="points">
              <mxPoint x="350" y="350" />
            </Array>
          </mxGeometry>
        </mxCell>
        <mxCell id="hqDBQVvUN8pm33PHdfQ5-36" value="" style="endArrow=classic;startArrow=classic;html=1;rounded=0;entryX=0.293;entryY=1.02;entryDx=0;entryDy=0;entryPerimeter=0;strokeWidth=6;strokeColor=light-dark(#000000,#FFFFFF);" parent="1" edge="1">
          <mxGeometry width="50" height="50" relative="1" as="geometry">
            <mxPoint x="360" y="480" as="sourcePoint" />
            <mxPoint x="360.26" y="299" as="targetPoint" />
          </mxGeometry>
        </mxCell>
        <mxCell id="hqDBQVvUN8pm33PHdfQ5-37" value="" style="shape=link;html=1;rounded=0;strokeWidth=4;strokeColor=light-dark(#3333FF,#FFFFFF);" parent="1" edge="1">
          <mxGeometry width="100" relative="1" as="geometry">
            <mxPoint x="37" y="172" as="sourcePoint" />
            <mxPoint x="37" y="300" as="targetPoint" />
          </mxGeometry>
        </mxCell>
        <mxCell id="FidfcfIh9Q0ooM0dL6Si-1" value="" style="shape=link;html=1;rounded=0;strokeWidth=5;strokeColor=light-dark(#3333FF,#FFFFFF);" edge="1" parent="1">
          <mxGeometry width="100" relative="1" as="geometry">
            <mxPoint x="323" y="175" as="sourcePoint" />
            <mxPoint x="323" y="293" as="targetPoint" />
          </mxGeometry>
        </mxCell>
        <mxCell id="FidfcfIh9Q0ooM0dL6Si-2" value="" style="shape=link;html=1;rounded=0;strokeWidth=5;strokeColor=light-dark(#3333FF,#FFFFFF);" edge="1" parent="1">
          <mxGeometry width="100" relative="1" as="geometry">
            <mxPoint x="638" y="173" as="sourcePoint" />
            <mxPoint x="638" y="292" as="targetPoint" />
          </mxGeometry>
        </mxCell>
        <mxCell id="FidfcfIh9Q0ooM0dL6Si-9" value="" style="shape=link;html=1;rounded=0;strokeWidth=5;strokeColor=light-dark(#3333FF,#FFFFFF);entryX=0.25;entryY=0.25;entryDx=0;entryDy=0;entryPerimeter=0;" edge="1" parent="1">
          <mxGeometry width="100" relative="1" as="geometry">
            <mxPoint x="37" y="297" as="sourcePoint" />
            <mxPoint x="48.75" y="506.5" as="targetPoint" />
          </mxGeometry>
        </mxCell>
        <mxCell id="FidfcfIh9Q0ooM0dL6Si-12" value="" style="shape=link;html=1;rounded=0;strokeWidth=5;strokeColor=light-dark(#3333FF,#FFFFFF);" edge="1" parent="1">
          <mxGeometry width="100" relative="1" as="geometry">
            <mxPoint x="74" y="495" as="sourcePoint" />
            <mxPoint x="74" y="613" as="targetPoint" />
          </mxGeometry>
        </mxCell>
        <mxCell id="hqDBQVvUN8pm33PHdfQ5-48" value="&lt;div&gt;18&lt;/div&gt;Ditch for slurry&lt;div&gt;&lt;br&gt;&lt;/div&gt;" style="ellipse;shape=cloud;whiteSpace=wrap;html=1;fillColor=light-dark(#00B061,var(--ge-dark-color, #121212));" parent="1" vertex="1">
          <mxGeometry x="24" y="476" width="135" height="110" as="geometry" />
        </mxCell>
        <mxCell id="FidfcfIh9Q0ooM0dL6Si-4" value="&lt;div&gt;19&lt;/div&gt;Gobar gas plant" style="ellipse;whiteSpace=wrap;html=1;strokeColor=light-dark(#e32400, #EDEDED);fillColor=light-dark(#FFFF33,var(--ge-dark-color, #121212));strokeWidth=2;" vertex="1" parent="1">
          <mxGeometry x="33" y="592" width="97" height="63" as="geometry" />
        </mxCell>
        <mxCell id="FidfcfIh9Q0ooM0dL6Si-14" value="" style="shape=link;html=1;rounded=0;strokeWidth=5;strokeColor=light-dark(#ff2600, #FFFFFF);" edge="1" parent="1">
          <mxGeometry width="100" relative="1" as="geometry">
            <mxPoint x="40" y="55" as="sourcePoint" />
            <mxPoint x="838" y="55" as="targetPoint" />
          </mxGeometry>
        </mxCell>
        <mxCell id="FidfcfIh9Q0ooM0dL6Si-15" value="" style="shape=link;html=1;rounded=0;strokeWidth=5;strokeColor=light-dark(#ff2600, #FFFFFF);entryX=0.985;entryY=-0.022;entryDx=0;entryDy=0;entryPerimeter=0;" edge="1" parent="1">
          <mxGeometry width="100" relative="1" as="geometry">
            <mxPoint x="837" y="50" as="sourcePoint" />
            <mxPoint x="838.7" y="472.03999999999996" as="targetPoint" />
          </mxGeometry>
        </mxCell>
        <mxCell id="FidfcfIh9Q0ooM0dL6Si-16" value="" style="shape=link;html=1;rounded=0;strokeWidth=5;strokeColor=light-dark(#ff2600, #FFFFFF);exitX=0.588;exitY=0.9;exitDx=0;exitDy=0;exitPerimeter=0;" edge="1" parent="1">
          <mxGeometry width="100" relative="1" as="geometry">
            <mxPoint x="228.01999999999998" y="468" as="sourcePoint" />
            <mxPoint x="845" y="469" as="targetPoint" />
          </mxGeometry>
        </mxCell>
        <mxCell id="FidfcfIh9Q0ooM0dL6Si-19" value="Water&lt;div&gt;Boring&lt;/div&gt;" style="shape=cylinder3;whiteSpace=wrap;html=1;boundedLbl=1;backgroundOutline=1;size=15;fillColor=light-dark(#00a3d7, #1d293b);strokeColor=light-dark(#0433ff, #5c79a3);" vertex="1" parent="1">
          <mxGeometry x="207" y="300" width="37" height="70" as="geometry" />
        </mxCell>
        <mxCell id="FidfcfIh9Q0ooM0dL6Si-24" value="" style="shape=link;html=1;rounded=0;strokeWidth=3;strokeColor=light-dark(#ff2600, #FFFFFF);entryX=0.083;entryY=0.875;entryDx=0;entryDy=0;entryPerimeter=0;" edge="1" parent="1">
          <mxGeometry width="100" relative="1" as="geometry">
            <mxPoint x="41" y="49" as="sourcePoint" />
            <mxPoint x="40.98000000000002" y="471" as="targetPoint" />
          </mxGeometry>
        </mxCell>
        <mxCell id="FidfcfIh9Q0ooM0dL6Si-25" value="" style="shape=link;html=1;rounded=0;strokeWidth=5;strokeColor=light-dark(#ff2600, #FFFFFF);exitX=0.588;exitY=0.9;exitDx=0;exitDy=0;exitPerimeter=0;" edge="1" parent="1">
          <mxGeometry width="100" relative="1" as="geometry">
            <mxPoint x="33" y="467" as="sourcePoint" />
            <mxPoint x="223" y="468" as="targetPoint" />
          </mxGeometry>
        </mxCell>
        <mxCell id="hqDBQVvUN8pm33PHdfQ5-50" value="&lt;div&gt;17&lt;/div&gt;Toilet Bathroom&lt;div&gt;&lt;div&gt;&lt;br&gt;&lt;/div&gt;&lt;/div&gt;" style="rounded=0;whiteSpace=wrap;html=1;fillColor=light-dark(#FFD966,var(--ge-dark-color, #121212));" parent="1" vertex="1">
          <mxGeometry x="33" y="416" width="60" height="64" as="geometry" />
        </mxCell>
        <mxCell id="hqDBQVvUN8pm33PHdfQ5-29" value="&lt;span style=&quot;white-space: pre;&quot;&gt;           16&lt;/span&gt;&lt;div&gt;Labour room + Kitchen&lt;/div&gt;" style="rounded=1;whiteSpace=wrap;html=1;fillColor=light-dark(#FFD966,var(--ge-dark-color, #121212));" parent="1" vertex="1">
          <mxGeometry x="94" y="415" width="116" height="64" as="geometry" />
        </mxCell>
        <mxCell id="FidfcfIh9Q0ooM0dL6Si-20" value="Parking + Loading" style="shape=process;whiteSpace=wrap;html=1;backgroundOutline=1;fillColor=#f8cecc;strokeColor=#b85450;" vertex="1" parent="1">
          <mxGeometry x="30" y="303" width="177" height="109" as="geometry" />
        </mxCell>
        <mxCell id="hqDBQVvUN8pm33PHdfQ5-62" value="30*20(13)&lt;div&gt;(Sick Bay)&lt;/div&gt;" style="rounded=0;whiteSpace=wrap;html=1;" parent="1" vertex="1">
          <mxGeometry x="367" y="368" width="72" height="100" as="geometry" />
        </mxCell>
        <mxCell id="hqDBQVvUN8pm33PHdfQ5-54" value="30*20(12)&lt;div&gt;Sick Bay to good Health transfer goats&lt;/div&gt;" style="rounded=0;whiteSpace=wrap;html=1;" parent="1" vertex="1">
          <mxGeometry x="466" y="369" width="74" height="100" as="geometry" />
        </mxCell>
        <mxCell id="hqDBQVvUN8pm33PHdfQ5-51" value="60*30(11)&lt;div&gt;(Bhoonsa room)&lt;/div&gt;" style="rounded=0;whiteSpace=wrap;html=1;strokeWidth=3;" parent="1" vertex="1">
          <mxGeometry x="557" y="301" width="97" height="170" as="geometry" />
        </mxCell>
        <mxCell id="hqDBQVvUN8pm33PHdfQ5-53" value="&lt;span style=&quot;caret-color: rgb(0, 0, 0); color: rgb(0, 0, 0); font-family: Helvetica; font-size: 12px; font-style: normal; font-variant-caps: normal; font-weight: 400; letter-spacing: normal; text-align: center; text-indent: 0px; text-transform: none; white-space: normal; word-spacing: 0px; -webkit-text-stroke-width: 0px; background-color: rgb(251, 251, 251); text-decoration: none; float: none; display: inline !important;&quot;&gt;30*20(10)&lt;/span&gt;&lt;div style=&quot;caret-color: rgb(0, 0, 0); color: rgb(0, 0, 0); font-family: Helvetica; font-size: 12px; font-style: normal; font-variant-caps: normal; font-weight: 400; letter-spacing: normal; text-align: center; text-indent: 0px; text-transform: none; white-space: normal; word-spacing: 0px; -webkit-text-stroke-width: 0px; text-decoration: none;&quot;&gt;&lt;span style=&quot;text-align: start; font-size: 10pt; font-family: Arial;&quot; data-sheets-root=&quot;1&quot;&gt;Mommy&lt;/span&gt;&lt;/div&gt;&lt;div style=&quot;caret-color: rgb(0, 0, 0); color: rgb(0, 0, 0); font-family: Helvetica; font-size: 12px; font-style: normal; font-variant-caps: normal; font-weight: 400; letter-spacing: normal; text-align: center; text-indent: 0px; text-transform: none; white-space: normal; word-spacing: 0px; -webkit-text-stroke-width: 0px; text-decoration: none;&quot;&gt;&lt;span style=&quot;text-align: start; font-size: 10pt; font-family: Arial;&quot; data-sheets-root=&quot;1&quot;&gt;&amp;nbsp;Goats&amp;nbsp;&lt;/span&gt;&lt;/div&gt;" style="rounded=0;whiteSpace=wrap;html=1;" parent="1" vertex="1">
          <mxGeometry x="668" y="368" width="70" height="100" as="geometry" />
        </mxCell>
        <mxCell id="hqDBQVvUN8pm33PHdfQ5-52" value="&lt;div&gt;30*20(9)&lt;div&gt;&lt;span style=&quot;text-align: start; font-size: 10pt; font-family: Arial;&quot; data-sheets-root=&quot;1&quot;&gt;Baby Goats&lt;/span&gt;&lt;/div&gt;&lt;/div&gt;" style="rounded=0;whiteSpace=wrap;html=1;" parent="1" vertex="1">
          <mxGeometry x="767" y="367" width="70" height="100" as="geometry" />
        </mxCell>
        <mxCell id="hqDBQVvUN8pm33PHdfQ5-15" value="30*20(8)&lt;div&gt;&lt;span style=&quot;font-family: Arial; font-size: 13.333333px; text-align: start;&quot;&gt;Pregnant Goats&lt;/span&gt;&lt;br&gt;&lt;/div&gt;" style="rounded=0;whiteSpace=wrap;html=1;" parent="1" vertex="1">
          <mxGeometry x="757" y="60" width="70" height="100" as="geometry" />
        </mxCell>
        <mxCell id="hqDBQVvUN8pm33PHdfQ5-16" value="30*20(7)&lt;div&gt;Heat on &amp;nbsp;goats&lt;/div&gt;" style="rounded=0;whiteSpace=wrap;html=1;" parent="1" vertex="1">
          <mxGeometry x="658" y="60" width="70" height="100" as="geometry" />
        </mxCell>
        <mxCell id="hqDBQVvUN8pm33PHdfQ5-17" value="30*20(6)&lt;div&gt;&lt;span style=&quot;text-align: start; font-size: 10pt; font-family: Arial;&quot; data-sheets-root=&quot;1&quot;&gt;Breader&lt;/span&gt;&lt;br&gt;&lt;/div&gt;" style="rounded=0;whiteSpace=wrap;html=1;" parent="1" vertex="1">
          <mxGeometry x="564" y="59" width="70" height="100" as="geometry" />
        </mxCell>
        <mxCell id="hqDBQVvUN8pm33PHdfQ5-11" value="30*20(5)&lt;div&gt;&lt;span style=&quot;text-align: start; font-size: 10pt; font-family: Arial;&quot; data-sheets-root=&quot;1&quot;&gt;Black Bengal&lt;/span&gt;&lt;br&gt;&lt;/div&gt;" style="rounded=0;whiteSpace=wrap;html=1;" parent="1" vertex="1">
          <mxGeometry x="461" y="60" width="70" height="100" as="geometry" />
        </mxCell>
        <mxCell id="hqDBQVvUN8pm33PHdfQ5-12" value="30*20(4)&lt;div&gt;&lt;span style=&quot;text-align: start; font-size: 10pt; font-family: Arial;&quot; data-sheets-root=&quot;1&quot;&gt;Sirohi&lt;/span&gt;&lt;br&gt;&lt;/div&gt;" style="rounded=0;whiteSpace=wrap;html=1;" parent="1" vertex="1">
          <mxGeometry x="351" y="60" width="70" height="100" as="geometry" />
        </mxCell>
        <mxCell id="hqDBQVvUN8pm33PHdfQ5-13" value="30*20(3)&lt;div&gt;&lt;span style=&quot;text-align: start; font-size: 10pt; font-family: Arial;&quot; data-sheets-root=&quot;1&quot;&gt;Beetal&lt;/span&gt;&lt;br&gt;&lt;/div&gt;" style="rounded=0;whiteSpace=wrap;html=1;" parent="1" vertex="1">
          <mxGeometry x="250" y="60" width="70" height="100" as="geometry" />
        </mxCell>
        <mxCell id="hqDBQVvUN8pm33PHdfQ5-14" value="30*20(2)&lt;div&gt;&lt;span style=&quot;text-align: start; font-size: 10pt; font-family: Arial;&quot; data-sheets-root=&quot;1&quot;&gt;Sojat&lt;/span&gt;&lt;br&gt;&lt;/div&gt;" style="rounded=0;whiteSpace=wrap;html=1;" parent="1" vertex="1">
          <mxGeometry x="150" y="60" width="70" height="100" as="geometry" />
        </mxCell>
        <mxCell id="hqDBQVvUN8pm33PHdfQ5-8" value="30*20(1)&lt;div&gt;&lt;span style=&quot;text-align: start; font-size: 10pt; font-family: Arial;&quot; data-sheets-root=&quot;1&quot;&gt;Boer&lt;/span&gt;&lt;br&gt;&lt;/div&gt;" style="rounded=0;whiteSpace=wrap;html=1;" parent="1" vertex="1">
          <mxGeometry x="50" y="60" width="70" height="100" as="geometry" />
        </mxCell>
        <mxCell id="FidfcfIh9Q0ooM0dL6Si-27" value="" style="shape=link;html=1;rounded=0;strokeWidth=5;" edge="1" parent="1">
          <mxGeometry width="100" relative="1" as="geometry">
            <mxPoint x="555" y="301" as="sourcePoint" />
            <mxPoint x="655" y="301" as="targetPoint" />
            <Array as="points">
              <mxPoint x="615" y="301" />
            </Array>
          </mxGeometry>
        </mxCell>
      </root>
    </mxGraphModel>
  </diagram>
</mxfile>
